<svg width="1440" height="732" viewBox="0 0 1440 732" fill="none" xmlns="http://www.w3.org/2000/svg">
<rect width="1440" height="732" fill="#F5F2EA"/>
<path d="M307.012 274.445C307.012 274.445 300.128 269.1 308.529 257.664C316.931 246.227 332.195 242.378 330.677 251.549C329.16 260.721 323.045 279.042 307.012 274.445Z" fill="#F7D8B2"/>
<path d="M317.701 259.951C310.242 269.193 303.352 278.881 297.071 288.961Z" fill="#F7D8B2"/>
<path d="M317.701 259.951C310.242 269.193 303.352 278.881 297.071 288.961" stroke="#C1C1C1" stroke-linecap="round" stroke-linejoin="round"/>
<path d="M920.331 419.428C920.331 419.428 917.23 411.291 930.361 405.88C943.491 400.47 958.535 405.154 952.464 412.17C946.394 419.186 931.636 431.679 920.331 419.428Z" fill="#F7D8B2"/>
<path d="M937.003 412.588C925.83 416.614 914.908 421.307 904.298 426.642Z" fill="#C1C1C1"/>
<path d="M937.003 412.588C925.83 416.614 914.908 421.307 904.298 426.642" stroke="#C1C1C1" stroke-linecap="round" stroke-linejoin="round"/>
<path d="M1062.24 623.971C1062.24 623.971 1053.44 623.751 1053.44 609.543C1053.44 595.335 1063.38 583.15 1067.6 591.486C1071.82 599.822 1077.85 618.12 1062.24 623.971Z" fill="#F7D8B2"/>
<path d="M1062.21 605.958C1061.72 617.815 1061.94 629.691 1062.87 641.522Z" fill="#C1C1C1"/>
<path d="M1062.21 605.958C1061.72 617.815 1061.94 629.691 1062.87 641.522" stroke="#C1C1C1" stroke-linecap="round" stroke-linejoin="round"/>
<path d="M516.349 475.381C516.349 475.381 523.585 470.52 531.745 482.089C539.904 493.657 538.827 509.339 530.601 505.028C522.375 500.718 506.98 489.039 516.349 475.381Z" fill="#F7D8B2"/>
<path d="M526.774 489.963C520.331 480.018 513.294 470.47 505.704 461.371Z" fill="#C1C1C1"/>
<path d="M526.774 489.963C520.331 480.018 513.294 470.47 505.704 461.371" stroke="#C1C1C1" stroke-linecap="round" stroke-linejoin="round"/>
<path d="M239.843 212.994C241.995 206.346 245.107 200.048 249.08 194.299C255.194 185.7 273.053 190.912 273.053 190.912C277.936 191.242 276.198 218.361 260.517 222.539C253.919 224.321 263.222 226.476 269.314 225.245C275.407 224.013 288.955 227.708 284.05 235.076C279.146 242.444 265.597 251.043 258.23 251.043C249.462 251.315 240.845 248.72 233.684 243.654C225.107 237.517 217.761 220.252 217.761 209.255C217.761 198.258 228.802 189.681 239.843 212.994Z" fill="#F7D8B2"/>
<path d="M251.28 216.425C251.28 216.425 229.132 244.687 225.305 257.642Z" fill="#C1C1C1"/>
<path d="M251.28 216.425C251.28 216.425 229.132 244.687 225.305 257.642" stroke="#C1C1C1" stroke-linecap="round" stroke-linejoin="round"/>
<path d="M843.023 218.779C839.108 213.011 836.049 206.706 833.94 200.062C830.97 189.923 846.08 179.102 846.08 179.102C849.335 175.451 869.636 193.552 863.257 208.464C860.508 214.842 868.03 208.771 870.845 203.185C873.66 197.599 884.877 189.241 887.648 197.643C890.42 206.044 888.836 221.968 884.305 227.774C879.117 234.84 871.766 240.021 863.367 242.532C853.25 245.501 835.193 240.706 826.506 233.888C817.818 227.07 817.862 213.104 843.023 218.779Z" fill="#F7D8B2"/>
<path d="M852.788 211.917C852.788 211.917 861.366 246.755 869.218 257.774" stroke="#C1C1C1" stroke-linecap="round" stroke-linejoin="round"/>
<path d="M1073.23 485.652C1069.31 479.88 1066.25 473.567 1064.15 466.913C1061.18 456.796 1076.27 445.953 1076.27 445.953C1079.54 442.324 1099.82 460.403 1093.44 475.337C1090.72 481.715 1098.22 475.623 1101.03 470.036C1103.85 464.45 1115.09 456.114 1117.86 464.516C1120.63 472.917 1119.05 488.819 1114.51 494.625C1109.32 501.682 1101.97 506.861 1093.58 509.383C1083.46 512.374 1065.4 507.558 1056.71 500.761C1048.03 493.965 1048.07 479.955 1073.23 485.652Z" fill="#F7D8B2"/>
<path d="M1083 478.768C1083 478.768 1091.58 513.628 1099.43 524.625Z" fill="#C1C1C1"/>
<path d="M1083 478.768C1083 478.768 1091.58 513.628 1099.43 524.625" stroke="#C1C1C1" stroke-linecap="round" stroke-linejoin="round"/>
<path d="M542.983 78.4801C549.843 79.5586 556.511 81.6255 562.778 84.6164C572.213 89.3231 569.86 107.754 569.86 107.754C570.278 112.637 543.225 115.144 536.649 100.298C533.856 93.9638 533.174 103.597 535.352 109.469C537.529 115.342 535.967 129.264 527.94 125.547C519.912 121.83 509.333 109.843 508.145 102.563C506.573 93.9737 507.831 85.106 511.73 77.2925C516.459 67.8571 532.272 57.9159 543.181 56.2004C554.09 54.4849 564.295 63.9422 542.983 78.4801Z" fill="#F7D8B2"/>
<path d="M541.356 90.3129C541.356 90.3129 510.015 72.7179 496.598 71.0684Z" fill="#C1C1C1"/>
<path d="M541.356 90.3129C541.356 90.3129 510.015 72.7179 496.598 71.0684" stroke="#C1C1C1" stroke-linecap="round" stroke-linejoin="round"/>
<path d="M404.994 575.958C409.674 576.677 414.224 578.078 418.498 580.115C424.921 583.326 423.315 595.841 423.315 595.841C423.601 599.162 405.214 600.855 400.75 590.782C398.836 586.383 398.396 592.981 399.87 597.006C401.343 601.031 400.288 610.444 394.833 608.003C389.379 605.562 382.187 597.336 381.417 592.41C380.29 586.561 381.109 580.505 383.748 575.166C386.959 568.744 397.714 561.97 405.126 560.826C412.538 559.683 419.466 566.083 404.994 575.958Z" fill="#F7D8B2"/>
<path d="M403.895 583.986C403.895 583.986 382.583 572.11 373.477 570.922Z" fill="#C1C1C1"/>
<path d="M403.895 583.986C403.895 583.986 382.583 572.11 373.477 570.922" stroke="#C1C1C1" stroke-linecap="round" stroke-linejoin="round"/>
<path d="M237.401 443.402C240.882 440.159 244.816 437.44 249.08 435.33C255.678 432.273 264.476 441.268 264.476 441.268C267.269 443.072 257.262 458.6 246.573 455.894C241.998 454.729 246.881 459.127 250.972 460.425C255.062 461.723 261.815 468.387 256.448 471.136C251.082 473.885 240.261 474.501 235.884 472.06C230.596 469.32 226.343 464.936 223.765 459.567C220.708 453.101 222.028 440.455 225.679 433.901C229.33 427.346 238.567 425.917 237.401 443.402Z" fill="#F7D8B2"/>
<path d="M243.054 449.23C243.054 449.23 220.488 458.665 214 465.11Z" fill="#C1C1C1"/>
<path d="M243.054 449.23C243.054 449.23 220.488 458.665 214 465.11" stroke="#C1C1C1" stroke-linecap="round" stroke-linejoin="round"/>
<path d="M1060.41 203.515C1065.09 204.248 1069.64 205.656 1073.91 207.694C1080.34 210.905 1078.73 223.419 1078.73 223.419C1079.02 226.74 1060.63 228.434 1056.17 218.361C1054.25 213.962 1053.81 220.56 1055.29 224.585C1056.76 228.61 1055.7 238.023 1050.25 235.582C1044.79 233.141 1037.6 224.915 1036.83 219.966C1035.71 214.118 1036.53 208.063 1039.16 202.723C1042.38 196.323 1053.13 189.527 1060.54 188.405C1067.95 187.284 1074.88 193.64 1060.41 203.515Z" fill="#F7D8B2"/>
<path d="M1059.31 211.565C1059.31 211.565 1038 199.688 1028.89 198.5Z" fill="#C1C1C1"/>
<path d="M1059.31 211.565C1059.31 211.565 1038 199.688 1028.89 198.5" stroke="#C1C1C1" stroke-linecap="round" stroke-linejoin="round"/>
<path d="M284.556 168.413C284.556 168.413 298.786 162.716 324.409 168.413C350.032 174.109 374.225 192.606 412.67 198.324C451.115 204.043 475.308 191.198 479.575 169.842C483.842 148.486 463.916 145.649 450.983 155.612C438.051 165.576 450.983 182.665 450.983 182.665" stroke="#C1C1C1" stroke-width="0.75" stroke-linecap="round" stroke-linejoin="round" stroke-dasharray="2 2"/>
<path d="M405.544 212.554C405.544 212.554 424.063 219.658 455.382 212.554C486.701 205.45 489.539 169.842 513.732 151.346C537.925 132.849 557.873 152.753 557.873 169.842C557.873 186.932 545.051 189.769 532.251 189.769" stroke="#C1C1C1" stroke-width="0.75" stroke-linecap="round" stroke-linejoin="round" stroke-dasharray="2 2"/>
<path d="M763.12 542.836C763.12 542.836 781.616 534.302 805.832 557.066C830.047 579.829 858.507 605.452 896.93 602.615C935.353 599.778 951.035 565.555 983.674 558.495C1016.31 551.435 1032.06 571.296 1032.06 584.118C1032.06 596.94 1010.7 614.008 999.311 601.207" stroke="#C1C1C1" stroke-width="0.75" stroke-linecap="round" stroke-linejoin="round" stroke-dasharray="2 2"/>
<path d="M717.548 571.295C717.548 571.295 764.527 557.065 788.72 576.992C812.913 596.918 834.269 626.83 869.855 626.83" stroke="#C1C1C1" stroke-width="0.75" stroke-linecap="round" stroke-linejoin="round" stroke-dasharray="2 2"/>
<path d="M191 639.5H1248" stroke="#C1C1C1"/>
<path d="M1122.12 466.387C1122.12 466.387 1117.89 491.805 1120.54 507.17C1123.19 522.536 1126.36 526.23 1129.53 536.283C1132.71 546.335 1132.71 559.05 1132.71 559.05L1122.57 560.121C1122.57 560.121 1109.42 529.938 1108.36 505.042C1107.3 480.147 1112.07 465.329 1112.07 465.329L1122.12 466.387Z" fill="white"/>
<path opacity="0.5" d="M1122.12 466.387C1122.12 466.387 1117.89 491.805 1120.54 507.17C1123.19 522.536 1126.36 526.23 1129.53 536.283C1132.71 546.335 1132.71 559.05 1132.71 559.05L1122.57 560.121C1122.57 560.121 1109.42 529.938 1108.36 505.042C1107.3 480.147 1112.07 465.329 1112.07 465.329L1122.12 466.387Z" fill="black" stroke="#263238" stroke-miterlimit="10"/>
<path d="M1122.12 466.387C1122.12 466.387 1117.89 491.805 1120.54 507.17C1123.19 522.536 1126.36 526.23 1129.53 536.283C1132.71 546.335 1132.71 559.05 1132.71 559.05L1122.57 560.121C1122.57 560.121 1109.42 529.938 1108.36 505.042C1107.3 480.147 1112.07 465.329 1112.07 465.329L1122.12 466.387Z" stroke="#263238" stroke-miterlimit="10"/>
<path d="M1131.36 633.241C1131.36 633.241 1133.97 634.547 1129.53 635.852C1126.55 636.555 1123.43 636.447 1120.5 635.539C1120.5 635.539 1119.55 635.082 1120.84 633.633C1122.13 632.184 1131.36 633.241 1131.36 633.241Z" fill="#263238" stroke="#263238" stroke-miterlimit="10"/>
<path d="M1136.06 556.805C1136.06 556.805 1133.82 553.15 1116.77 555.382C1106.54 556.687 1105.11 555.63 1104.32 560.486C1103.54 565.343 1112.04 610.878 1112.16 614.011C1112.1 616.963 1111.03 619.805 1109.13 622.066C1107.82 623.502 1098.19 629.481 1094.42 629.677C1090.64 629.873 1089.4 632.288 1089.49 634.051C1089.59 635.813 1094.98 637.327 1102.55 636.949C1110.12 636.57 1119.73 633.881 1122.13 633.763C1124.53 633.646 1128.04 635.173 1131.37 633.293C1134.7 631.413 1130.88 623.359 1129.99 619.638C1129.1 615.917 1133.59 589.246 1135.7 576.439C1137.8 563.633 1136.54 559.533 1136.06 556.805Z" fill="black" stroke="#263238" stroke-miterlimit="10"/>
<path opacity="0.1" d="M1136.06 556.805C1136.06 556.805 1133.82 553.15 1116.77 555.382C1106.54 556.687 1105.11 555.63 1104.32 560.486C1103.54 565.343 1112.04 610.878 1112.16 614.011C1112.1 616.963 1111.03 619.805 1109.13 622.066C1107.82 623.502 1098.19 629.481 1094.42 629.677C1090.64 629.873 1089.4 632.288 1089.49 634.051C1089.59 635.813 1094.98 637.327 1102.55 636.949C1110.12 636.57 1119.73 633.881 1122.13 633.763C1124.53 633.646 1128.04 635.173 1131.37 633.293C1134.7 631.413 1130.88 623.359 1129.99 619.638C1129.1 615.917 1133.59 589.246 1135.7 576.439C1137.8 563.633 1136.54 559.533 1136.06 556.805Z" fill="black"/>
<path d="M1136.06 556.805C1136.06 556.805 1133.82 553.15 1116.77 555.382C1106.54 556.687 1105.11 555.63 1104.32 560.486C1103.54 565.343 1112.04 610.878 1112.16 614.011C1112.1 616.963 1111.03 619.805 1109.13 622.066C1107.82 623.502 1098.19 629.481 1094.42 629.677C1090.64 629.873 1089.4 632.288 1089.49 634.051C1089.59 635.813 1094.98 637.327 1102.55 636.949C1110.12 636.57 1119.73 633.881 1122.13 633.763C1124.53 633.646 1128.04 635.173 1131.37 633.293C1134.7 631.413 1130.88 623.359 1129.99 619.638C1129.1 615.917 1133.59 589.246 1135.7 576.439C1137.8 563.633 1136.54 559.533 1136.06 556.805Z" stroke="#263238" stroke-miterlimit="10"/>
<path d="M1127.78 464.624C1123.87 472.282 1121.34 480.574 1120.32 489.115C1118.91 502.614 1117.84 514.677 1121.74 523.202C1125.64 531.726 1127.78 544.155 1127.07 549.481C1126.56 553.065 1125.85 556.617 1124.94 560.121L1103.28 561.57C1103.28 561.57 1099.73 536.361 1093.33 521.805C1086.94 507.248 1084.47 482.04 1084.47 471.752C1084.37 466.768 1084.61 461.783 1085.17 456.831L1129.91 459.324L1127.78 464.624Z" fill="white"/>
<path d="M1127.78 464.624C1123.87 472.282 1121.34 480.574 1120.32 489.115C1118.91 502.614 1117.84 514.677 1121.74 523.202C1125.64 531.726 1127.78 544.155 1127.07 549.481C1126.56 553.065 1125.85 556.617 1124.94 560.121L1103.28 561.57C1103.28 561.57 1099.73 536.361 1093.33 521.805C1086.94 507.248 1084.47 482.04 1084.47 471.752C1084.37 466.768 1084.61 461.783 1085.17 456.831L1129.91 459.324L1127.78 464.624Z" stroke="#263238" stroke-miterlimit="10"/>
<path d="M1104.59 469.481C1104.59 469.481 1102.94 483.437 1102.94 495.473C1102.9 502.477 1103.73 509.458 1105.41 516.257" stroke="#263238" stroke-linecap="round" stroke-linejoin="round"/>
<path d="M1106.78 520.643C1106.78 520.643 1112 532.679 1112.8 538.424" stroke="#263238" stroke-linecap="round" stroke-linejoin="round"/>
<path d="M1099.21 271.817C1099.21 271.817 1093.18 268.07 1097.56 263.684C1101.95 259.297 1117.65 256.739 1133.01 268.436C1148.36 280.133 1141.41 290.355 1139.95 296.569C1138.49 302.783 1139.59 304.611 1150.54 314.467C1161.49 324.324 1156.02 338.593 1148.35 346.621C1140.67 354.65 1121.99 359.05 1111.45 357.914C1100.92 356.778 1095.37 362.666 1091.35 367.052C1087.33 371.439 1078.93 371.06 1074.18 370.329C1069.43 369.598 1063.24 369.663 1053.72 376.191C1044.21 382.718 1032.84 378.802 1025.21 371.073C1017.59 363.345 1023.76 350.982 1018.68 350.251C1013.61 349.52 1012.47 349.885 1013.2 345.499C1013.38 344.398 1013.82 343.357 1014.49 342.468C1015.16 341.579 1016.04 340.868 1017.05 340.399C1018.06 339.929 1019.18 339.716 1020.29 339.776C1021.4 339.837 1022.48 340.17 1023.44 340.747C1028.18 343.358 1036.58 349.154 1041.33 344.037C1046.09 338.919 1038.72 327.966 1050.84 319.232C1062.95 310.499 1069.12 319.232 1079.7 319.232C1090.29 319.232 1096.87 315.577 1098.33 309.01C1099.79 302.444 1096.5 295.486 1095.41 288.54C1094.31 281.595 1099.21 271.817 1099.21 271.817Z" fill="#263238" stroke="#263238" stroke-miterlimit="10"/>
<path d="M1099.21 271.817C1099.21 271.817 1106.13 267.679 1112.47 277.365C1118.82 287.052 1111.73 294.519 1121.79 307.196C1131.86 319.872 1153.85 319.872 1152 332.927C1150.15 345.982 1141.18 342.627 1141.18 342.627" stroke="black" stroke-width="0.75" stroke-linecap="round" stroke-linejoin="round"/>
<path d="M1114.7 270.29C1114.7 270.29 1124.4 275.512 1124.4 284.454C1124.4 293.397 1119.56 296.752 1124.78 303.475C1130 310.199 1133.35 310.917 1133.35 310.917" stroke="black" stroke-width="0.75" stroke-linecap="round" stroke-linejoin="round"/>
<path d="M1134.47 323.971C1134.47 323.971 1145.66 332.183 1143.42 337.405C1141.19 342.627 1136.71 339.259 1136.71 339.259" stroke="black" stroke-width="0.75" stroke-linecap="round" stroke-linejoin="round"/>
<path d="M1062.13 322.862C1062.13 322.862 1049.83 322.483 1048.71 333.306C1047.59 344.128 1049.83 351.582 1042.74 352.705C1035.66 353.828 1028.95 345.238 1024.1 345.238" stroke="black" stroke-width="0.75" stroke-linecap="round" stroke-linejoin="round"/>
<path d="M1051.69 353.057C1051.69 353.057 1050.58 356.791 1044.61 358.279C1038.65 359.768 1036.03 353.436 1030.81 351.948" stroke="black" stroke-width="0.75" stroke-linecap="round" stroke-linejoin="round"/>
<path d="M1099.21 271.817C1096.31 273.431 1093.58 275.334 1091.06 277.496C1088.58 279.963 1087.6 283.423 1085.84 284.65C1084.08 285.877 1078.68 286.634 1078.68 287.614C1078.68 288.593 1080.9 291.53 1080.9 291.53C1080.9 291.53 1078.68 300.172 1077.94 302.64C1077.2 305.107 1076.7 307.862 1078.93 309.063C1082.1 310.839 1085.67 311.774 1089.3 311.778L1094.73 312.026V322.888C1094.73 327.823 1092.51 337.953 1092.51 337.953L1107.63 330.342C1107.63 330.342 1106.88 321.7 1106.88 318.24C1107.03 314.848 1107.37 311.467 1107.88 308.11C1107.88 308.11 1115.77 307.131 1115.03 301.687C1114.39 296.935 1109.81 298.475 1108.37 298.475H1106.88C1106.88 298.475 1107.38 294.037 1106.14 291.817C1104.9 289.598 1100.21 287.614 1099.48 282.927C1099.03 279.241 1098.94 275.521 1099.21 271.817V271.817Z" fill="white"/>
<g style="mix-blend-mode:multiply" opacity="0.5">
<path d="M1101.74 306.021C1106.96 300.799 1104.55 296.204 1102.09 292C1100.57 289.201 1099.68 286.105 1099.48 282.927C1100.21 287.613 1104.91 289.585 1106.14 291.817C1107.37 294.05 1106.88 298.475 1106.88 298.475H1108.37C1109.85 298.475 1114.39 296.935 1115.03 301.687C1115.77 307.13 1107.88 308.11 1107.88 308.11C1107.37 311.467 1107.03 314.848 1106.88 318.24C1106.88 320.368 1107.17 324.454 1107.38 327.287C1104.02 325.512 1099.36 323.005 1094.78 320.394V312.065L1089.35 311.817C1085.72 311.813 1082.15 310.878 1078.98 309.102C1079.3 305.525 1096.48 311.269 1101.74 306.021Z" fill="black"/>
</g>
<path d="M1099.21 271.817C1096.31 273.431 1093.58 275.334 1091.06 277.496C1088.58 279.963 1087.6 283.423 1085.84 284.65C1084.08 285.877 1078.68 286.634 1078.68 287.614C1078.68 288.593 1080.9 291.53 1080.9 291.53C1080.9 291.53 1078.68 300.172 1077.94 302.64C1077.2 305.107 1076.7 307.862 1078.93 309.063C1082.1 310.839 1085.67 311.774 1089.3 311.778L1094.73 312.026V322.888C1094.73 327.823 1092.51 337.953 1092.51 337.953L1107.63 330.342C1107.63 330.342 1106.88 321.7 1106.88 318.24C1107.03 314.848 1107.37 311.467 1107.88 308.11C1107.88 308.11 1115.77 307.131 1115.03 301.687C1114.39 296.935 1109.81 298.475 1108.37 298.475H1106.88C1106.88 298.475 1107.38 294.037 1106.14 291.817C1104.9 289.598 1100.21 287.614 1099.48 282.927C1099.03 279.241 1098.94 275.521 1099.21 271.817V271.817Z" stroke="#263238" stroke-miterlimit="10"/>
<path d="M1092.04 283.671L1089.35 286.634C1089.35 286.634 1090.59 288.606 1092.31 288.606" stroke="#263238" stroke-width="0.75" stroke-linecap="round" stroke-linejoin="round"/>
<path d="M1093.03 280.211C1093.37 280.04 1093.74 279.95 1094.11 279.948C1094.49 279.946 1094.86 280.032 1095.2 280.2C1095.53 280.368 1095.83 280.612 1096.05 280.913C1096.28 281.214 1096.43 281.564 1096.49 281.935" stroke="#263238" stroke-width="0.75" stroke-linecap="round" stroke-linejoin="round"/>
<path d="M1081.67 297.248C1082.38 297.864 1083.22 298.298 1084.13 298.512C1085.04 298.726 1085.99 298.713 1086.9 298.475" stroke="#263238" stroke-width="0.75" stroke-linecap="round" stroke-linejoin="round"/>
<path d="M1120.68 636.1C1120.68 636.1 1123.29 637.627 1118.65 638.711C1115.52 639.282 1112.29 639.003 1109.31 637.902C1109.31 637.902 1108.35 637.379 1109.77 635.969C1111.19 634.56 1120.68 636.1 1120.68 636.1Z" fill="#263238" stroke="#263238" stroke-miterlimit="10"/>
<path d="M1129.55 557.288C1129.55 557.288 1127.42 553.371 1109.66 554.807C1099.02 555.656 1097.6 554.442 1096.53 559.416C1095.46 564.39 1101.86 611.962 1101.86 615.16C1101.64 618.206 1100.39 621.086 1098.31 623.319C1096.88 624.742 1086.56 630.421 1082.64 630.421C1078.72 630.421 1077.31 632.915 1077.31 634.69C1077.31 636.466 1082.81 638.372 1090.63 638.372C1098.45 638.372 1108.55 636.1 1111.03 636.1C1113.51 636.1 1117.08 637.876 1120.63 636.1C1124.18 634.325 1120.63 625.813 1119.91 621.909C1119.19 618.006 1125.24 590.656 1128.08 577.523C1130.93 564.39 1129.91 560.121 1129.55 557.288Z" fill="black" stroke="#263238" stroke-miterlimit="10"/>
<path opacity="0.1" d="M1129.55 557.288C1129.55 557.288 1127.42 553.371 1109.66 554.807C1099.02 555.656 1097.6 554.442 1096.53 559.416C1095.46 564.39 1101.86 611.962 1101.86 615.16C1101.64 618.206 1100.39 621.086 1098.31 623.319C1096.88 624.742 1086.56 630.421 1082.64 630.421C1078.72 630.421 1077.31 632.915 1077.31 634.69C1077.31 636.466 1082.81 638.372 1090.63 638.372C1098.45 638.372 1108.55 636.1 1111.03 636.1C1113.51 636.1 1117.08 637.876 1120.63 636.1C1124.18 634.325 1120.63 625.813 1119.91 621.909C1119.19 618.006 1125.24 590.656 1128.08 577.523C1130.93 564.39 1129.91 560.121 1129.55 557.288Z" fill="black"/>
<path d="M1129.55 557.288C1129.55 557.288 1127.42 553.371 1109.66 554.807C1099.02 555.656 1097.6 554.442 1096.53 559.416C1095.46 564.39 1101.86 611.962 1101.86 615.16C1101.64 618.206 1100.39 621.086 1098.31 623.319C1096.88 624.742 1086.56 630.421 1082.64 630.421C1078.72 630.421 1077.31 632.915 1077.31 634.69C1077.31 636.466 1082.81 638.372 1090.63 638.372C1098.45 638.372 1108.55 636.1 1111.03 636.1C1113.51 636.1 1117.08 637.876 1120.63 636.1C1124.18 634.325 1120.63 625.813 1119.91 621.909C1119.19 618.006 1125.24 590.656 1128.08 577.523C1130.93 564.39 1129.91 560.121 1129.55 557.288Z" stroke="#263238" stroke-miterlimit="10"/>
<path d="M1084.39 353.306C1084.39 353.306 1078.71 366.883 1078.96 371.334C1079.21 375.786 1086.79 392.078 1086.79 394.05C1086.79 396.021 1067.77 460.721 1067.77 460.721C1067.77 460.721 1089.26 467.64 1108.76 468.371C1121.13 468.668 1133.44 466.658 1145.07 462.444L1129.82 389.115L1131.06 354.533C1131.06 354.533 1124.89 333.788 1114.09 332.339C1103.29 330.89 1086.61 349.35 1084.39 353.306Z" fill="black" stroke="#263238" stroke-miterlimit="10"/>
<path opacity="0.1" d="M1084.39 353.306C1084.39 353.306 1078.71 366.883 1078.96 371.334C1079.21 375.786 1086.79 392.078 1086.79 394.05C1086.79 396.021 1067.77 460.721 1067.77 460.721C1067.77 460.721 1089.26 467.64 1108.76 468.371C1121.13 468.668 1133.44 466.658 1145.07 462.444L1129.82 389.115L1131.06 354.533C1131.06 354.533 1124.89 333.788 1114.09 332.339C1103.29 330.89 1086.61 349.35 1084.39 353.306Z" fill="#263238"/>
<path d="M1088.14 342.901C1088.14 342.901 1087.01 345.133 1081.44 343.266C1075.86 341.399 1075.29 339.35 1070.83 340.486C1066.36 341.621 1064.87 343.097 1061.35 342.901C1057.82 342.705 1057.25 341.778 1057.25 341.778C1057.25 341.778 1055.76 341.034 1056.32 342.339C1056.88 343.645 1059.48 344.206 1062.85 344.206C1066.22 344.206 1069.38 341.974 1072.89 341.778C1076.4 341.582 1078.11 344.206 1081.82 345.133C1083.46 345.611 1085.14 345.922 1086.84 346.06L1088.14 342.901Z" fill="black" stroke="#263238" stroke-width="0.5" stroke-miterlimit="10"/>
<path opacity="0.1" d="M1088.14 342.901C1088.14 342.901 1087.01 345.133 1081.44 343.266C1075.86 341.399 1075.29 339.35 1070.83 340.486C1066.36 341.621 1064.87 343.097 1061.35 342.901C1057.82 342.705 1057.25 341.778 1057.25 341.778C1057.25 341.778 1055.76 341.034 1056.32 342.339C1056.88 343.645 1059.48 344.206 1062.85 344.206C1066.22 344.206 1069.38 341.974 1072.89 341.778C1076.4 341.582 1078.11 344.206 1081.82 345.133C1083.46 345.611 1085.14 345.922 1086.84 346.06L1088.14 342.901Z" fill="black"/>
<path d="M1088.14 342.901C1088.14 342.901 1087.01 345.133 1081.44 343.266C1075.86 341.399 1075.29 339.35 1070.83 340.486C1066.36 341.621 1064.87 343.097 1061.35 342.901C1057.82 342.705 1057.25 341.778 1057.25 341.778C1057.25 341.778 1055.76 341.034 1056.32 342.339C1056.88 343.645 1059.48 344.206 1062.85 344.206C1066.22 344.206 1069.38 341.974 1072.89 341.778C1076.4 341.582 1078.11 344.206 1081.82 345.133C1083.46 345.611 1085.14 345.922 1086.84 346.06L1088.14 342.901Z" stroke="#263238" stroke-width="0.5" stroke-miterlimit="10"/>
<path d="M1085.71 351.83C1085.71 351.83 1084.96 353.136 1080.13 356.478C1075.3 359.82 1069.34 356.112 1065.25 356.856C1065.22 356.596 1065.24 356.331 1065.32 356.08C1065.4 355.829 1065.53 355.598 1065.7 355.403C1065.88 355.208 1066.1 355.054 1066.34 354.951C1066.58 354.848 1066.84 354.799 1067.1 354.807C1069.15 354.807 1070.64 357.418 1076.6 355.734C1082.55 354.05 1085.53 347.927 1085.71 351.83Z" fill="black" stroke="#263238" stroke-width="0.5" stroke-miterlimit="10"/>
<path opacity="0.1" d="M1085.71 351.83C1085.71 351.83 1084.96 353.136 1080.13 356.478C1075.3 359.82 1069.34 356.112 1065.25 356.856C1065.22 356.596 1065.24 356.331 1065.32 356.08C1065.4 355.829 1065.53 355.598 1065.7 355.403C1065.88 355.208 1066.1 355.054 1066.34 354.951C1066.58 354.848 1066.84 354.799 1067.1 354.807C1069.15 354.807 1070.64 357.418 1076.6 355.734C1082.55 354.05 1085.53 347.927 1085.71 351.83Z" fill="black"/>
<path d="M1085.71 351.83C1085.71 351.83 1084.96 353.136 1080.13 356.478C1075.3 359.82 1069.34 356.112 1065.25 356.856C1065.22 356.596 1065.24 356.331 1065.32 356.08C1065.4 355.829 1065.53 355.598 1065.7 355.403C1065.88 355.208 1066.1 355.054 1066.34 354.951C1066.58 354.848 1066.84 354.799 1067.1 354.807C1069.15 354.807 1070.64 357.418 1076.6 355.734C1082.55 354.05 1085.53 347.927 1085.71 351.83Z" stroke="#263238" stroke-width="0.5" stroke-miterlimit="10"/>
<path d="M1062.09 355.303C1062.09 354.915 1062.21 354.536 1062.42 354.214C1062.64 353.891 1062.95 353.64 1063.3 353.493C1063.66 353.345 1064.06 353.307 1064.44 353.383C1064.82 353.46 1065.17 353.648 1065.44 353.923C1065.71 354.198 1065.9 354.548 1065.97 354.929C1066.05 355.31 1066.01 355.704 1065.86 356.061C1065.71 356.419 1065.45 356.724 1065.13 356.937C1064.8 357.151 1064.42 357.264 1064.04 357.261C1063.78 357.261 1063.53 357.21 1063.29 357.112C1063.05 357.013 1062.84 356.869 1062.66 356.687C1062.48 356.505 1062.33 356.289 1062.24 356.051C1062.14 355.814 1062.09 355.559 1062.09 355.303Z" fill="black" stroke="#263238" stroke-width="0.5" stroke-miterlimit="10"/>
<path opacity="0.1" d="M1062.09 355.303C1062.09 354.915 1062.21 354.536 1062.42 354.214C1062.64 353.891 1062.95 353.64 1063.3 353.493C1063.66 353.345 1064.06 353.307 1064.44 353.383C1064.82 353.46 1065.17 353.648 1065.44 353.923C1065.71 354.198 1065.9 354.548 1065.97 354.929C1066.05 355.31 1066.01 355.704 1065.86 356.061C1065.71 356.419 1065.45 356.724 1065.13 356.937C1064.8 357.151 1064.42 357.264 1064.04 357.261C1063.78 357.261 1063.53 357.21 1063.29 357.112C1063.05 357.013 1062.84 356.869 1062.66 356.687C1062.48 356.505 1062.33 356.289 1062.24 356.051C1062.14 355.814 1062.09 355.559 1062.09 355.303Z" fill="black"/>
<path d="M1062.09 355.303C1062.09 354.915 1062.21 354.536 1062.42 354.214C1062.64 353.891 1062.95 353.64 1063.3 353.493C1063.66 353.345 1064.06 353.307 1064.44 353.383C1064.82 353.46 1065.17 353.648 1065.44 353.923C1065.71 354.198 1065.9 354.548 1065.97 354.929C1066.05 355.31 1066.01 355.704 1065.86 356.061C1065.71 356.419 1065.45 356.724 1065.13 356.937C1064.8 357.151 1064.42 357.264 1064.04 357.261C1063.78 357.261 1063.53 357.21 1063.29 357.112C1063.05 357.013 1062.84 356.869 1062.66 356.687C1062.48 356.505 1062.33 356.289 1062.24 356.051C1062.14 355.814 1062.09 355.559 1062.09 355.303Z" stroke="#263238" stroke-width="0.5" stroke-miterlimit="10"/>
<path d="M1053.71 341.869C1053.71 341.482 1053.83 341.103 1054.04 340.781C1054.26 340.459 1054.56 340.208 1054.92 340.06C1055.28 339.912 1055.67 339.873 1056.05 339.949C1056.43 340.024 1056.78 340.211 1057.05 340.485C1057.33 340.759 1057.51 341.107 1057.59 341.487C1057.66 341.867 1057.63 342.261 1057.48 342.619C1057.33 342.977 1057.08 343.282 1056.76 343.498C1056.43 343.713 1056.06 343.828 1055.67 343.828C1055.15 343.828 1054.65 343.621 1054.28 343.254C1053.92 342.887 1053.71 342.389 1053.71 341.869V341.869Z" fill="black" stroke="#263238" stroke-width="0.5" stroke-miterlimit="10"/>
<path opacity="0.1" d="M1053.71 341.869C1053.71 341.482 1053.83 341.103 1054.04 340.781C1054.26 340.459 1054.56 340.208 1054.92 340.06C1055.28 339.912 1055.67 339.873 1056.05 339.949C1056.43 340.024 1056.78 340.211 1057.05 340.485C1057.33 340.759 1057.51 341.107 1057.59 341.487C1057.66 341.867 1057.63 342.261 1057.48 342.619C1057.33 342.977 1057.08 343.282 1056.76 343.498C1056.43 343.713 1056.06 343.828 1055.67 343.828C1055.15 343.828 1054.65 343.621 1054.28 343.254C1053.92 342.887 1053.71 342.389 1053.71 341.869V341.869Z" fill="black"/>
<path d="M1053.71 341.869C1053.71 341.482 1053.83 341.103 1054.04 340.781C1054.26 340.459 1054.56 340.208 1054.92 340.06C1055.28 339.912 1055.67 339.873 1056.05 339.949C1056.43 340.024 1056.78 340.211 1057.05 340.485C1057.33 340.759 1057.51 341.107 1057.59 341.487C1057.66 341.867 1057.63 342.261 1057.48 342.619C1057.33 342.977 1057.08 343.282 1056.76 343.498C1056.43 343.713 1056.06 343.828 1055.67 343.828C1055.15 343.828 1054.65 343.621 1054.28 343.254C1053.92 342.887 1053.71 342.389 1053.71 341.869V341.869Z" stroke="#263238" stroke-width="0.5" stroke-miterlimit="10"/>
<path d="M1084.39 351.086C1084.95 346.43 1087.04 342.09 1090.32 338.736C1095.75 333.306 1103.89 329.35 1109.57 326.138C1115.25 322.927 1120.93 322.927 1124.89 325.394C1128.84 327.862 1135.25 339.964 1140.2 344.663C1145.15 349.363 1146.62 352.065 1142.17 355.277C1137.72 358.488 1134.77 358.24 1129.32 354.285C1123.88 350.329 1120.68 337.248 1114.96 336.269C1109.25 335.29 1099.91 338.736 1094.72 343.175C1089.52 347.614 1084.85 354.285 1084.35 353.306C1084.08 352.587 1084.1 351.795 1084.39 351.086V351.086Z" fill="black" stroke="#263238" stroke-miterlimit="10"/>
<path opacity="0.1" d="M1084.39 351.086C1084.95 346.43 1087.04 342.09 1090.32 338.736C1095.75 333.306 1103.89 329.35 1109.57 326.138C1115.25 322.927 1120.93 322.927 1124.89 325.394C1128.84 327.862 1135.25 339.964 1140.2 344.663C1145.15 349.363 1146.62 352.065 1142.17 355.277C1137.72 358.488 1134.77 358.24 1129.32 354.285C1123.88 350.329 1120.68 337.248 1114.96 336.269C1109.25 335.29 1099.91 338.736 1094.72 343.175C1089.52 347.614 1084.85 354.285 1084.35 353.306C1084.08 352.587 1084.1 351.795 1084.39 351.086V351.086Z" fill="black"/>
<path d="M1084.39 351.086C1084.95 346.43 1087.04 342.09 1090.32 338.736C1095.75 333.306 1103.89 329.35 1109.57 326.138C1115.25 322.927 1120.93 322.927 1124.89 325.394C1128.84 327.862 1135.25 339.964 1140.2 344.663C1145.15 349.363 1146.62 352.065 1142.17 355.277C1137.72 358.488 1134.77 358.24 1129.32 354.285C1123.88 350.329 1120.68 337.248 1114.96 336.269C1109.25 335.29 1099.91 338.736 1094.72 343.175C1089.52 347.614 1084.85 354.285 1084.35 353.306C1084.08 352.587 1084.1 351.795 1084.39 351.086V351.086Z" stroke="#98A3A8" stroke-miterlimit="10"/>
<path d="M1112.54 344.415C1112.54 344.415 1117.24 341.948 1122.42 346.138C1127.6 350.329 1144.61 375.773 1149.34 381.948C1154.06 388.123 1156.24 390.342 1154.77 394.546C1153.29 398.75 1130.81 422.444 1129.32 424.663C1128.22 426.25 1126.99 427.739 1125.63 429.115L1119.45 429.363L1113.03 423.188C1115.25 417.845 1117.81 412.647 1120.68 407.627C1125.38 399.481 1130.32 391.83 1130.32 391.83C1130.32 391.83 1107.35 365.89 1105.63 359.729C1104.61 355.9 1104.78 351.853 1106.11 348.123" fill="black"/>
<path d="M1112.54 344.415C1112.54 344.415 1117.24 341.948 1122.42 346.138C1127.6 350.329 1144.61 375.773 1149.34 381.948C1154.06 388.123 1156.24 390.342 1154.77 394.546C1153.29 398.75 1130.81 422.444 1129.32 424.663C1128.22 426.25 1126.99 427.739 1125.63 429.115L1119.45 429.363L1113.03 423.188C1115.25 417.845 1117.81 412.647 1120.68 407.627C1125.38 399.481 1130.32 391.83 1130.32 391.83C1130.32 391.83 1107.35 365.89 1105.63 359.729C1104.61 355.9 1104.78 351.853 1106.11 348.123" stroke="#263238" stroke-miterlimit="10"/>
<path opacity="0.1" d="M1112.54 344.415C1112.54 344.415 1117.24 341.948 1122.42 346.138C1127.6 350.329 1144.61 375.773 1149.34 381.948C1154.06 388.123 1156.24 390.342 1154.77 394.546C1153.29 398.75 1130.81 422.444 1129.32 424.663C1128.22 426.25 1126.99 427.739 1125.63 429.115L1119.45 429.363L1113.03 423.188C1115.25 417.845 1117.81 412.647 1120.68 407.627C1125.38 399.481 1130.32 391.83 1130.32 391.83C1130.32 391.83 1107.35 365.89 1105.63 359.729C1104.61 355.9 1104.78 351.853 1106.11 348.123" fill="black"/>
<path d="M1112.54 344.415C1112.54 344.415 1117.24 341.948 1122.42 346.138C1127.6 350.329 1144.61 375.773 1149.34 381.948C1154.06 388.123 1156.24 390.342 1154.77 394.546C1153.29 398.75 1130.81 422.444 1129.32 424.663C1128.22 426.25 1126.99 427.739 1125.63 429.115L1119.45 429.363L1113.03 423.188C1115.25 417.845 1117.81 412.647 1120.68 407.627C1125.38 399.481 1130.32 391.83 1130.32 391.83C1130.32 391.83 1107.35 365.89 1105.63 359.729C1104.61 355.9 1104.78 351.853 1106.11 348.123" stroke="#98A3A8" stroke-miterlimit="10"/>
<path d="M1113.03 423.188L1107.6 429.611C1107.6 429.611 1115.75 430.107 1119.45 429.363L1113.03 423.188Z" fill="white" stroke="#98A3A8" stroke-miterlimit="10"/>
<path d="M1104.39 429.363H1097.72C1097.72 429.363 1094.51 445.904 1095.5 453.071" stroke="#98A3A8" stroke-linecap="round" stroke-linejoin="round"/>
<path d="M1128.27 445.656C1128.27 446.857 1128.35 448.019 1128.35 449.115" stroke="#98A3A8" stroke-linecap="round" stroke-linejoin="round"/>
<path d="M1126.86 430.107C1126.86 430.107 1127.71 436.021 1128.16 442.692" stroke="#98A3A8" stroke-linecap="round" stroke-linejoin="round"/>
<path d="M1119.12 390.473C1115.78 393.373 1111.49 394.936 1107.07 394.859" stroke="#98A3A8" stroke-linecap="round" stroke-linejoin="round"/>
<path d="M1113.65 397.784C1109.88 398.616 1105.95 398.362 1102.31 397.052" stroke="#98A3A8" stroke-linecap="round" stroke-linejoin="round"/>
<path d="M1101.95 361.243C1101.95 361.243 1101.22 366.726 1109.99 367.77" stroke="#98A3A8" stroke-linecap="round" stroke-linejoin="round"/>
<path d="M1111.09 369.663C1111.09 369.663 1106.33 371.857 1103.41 370.76" stroke="#98A3A8" stroke-linecap="round" stroke-linejoin="round"/>
<path d="M1143.85 457.131C1143.85 457.131 1127.82 462.562 1111.79 463.071" stroke="#98A3A8" stroke-linecap="round" stroke-linejoin="round"/>
<path d="M1105.59 463.032C1105.59 463.032 1096.02 462.523 1090.33 461.491" stroke="#98A3A8" stroke-linecap="round" stroke-linejoin="round"/>
<path d="M1084.64 459.938C1079.9 459.322 1075.23 458.282 1070.68 456.831" stroke="#98A3A8" stroke-linecap="round" stroke-linejoin="round"/>
<path d="M1130.32 391.857C1130.74 390.576 1131.42 389.396 1132.32 388.39C1133.22 387.384 1134.31 386.573 1135.54 386.008" stroke="#98A3A8" stroke-linecap="round" stroke-linejoin="round"/>
<path d="M1115 336.269C1115 336.269 1123.85 336.896 1126.99 340.303C1130.12 343.71 1135.62 349.441 1135.62 349.441" stroke="#98A3A8" stroke-linecap="round" stroke-linejoin="round"/>
</svg>
